PathFileType	4	(X/Y/Z)	S01_0005_Gait_markers.trc
DataRate	CameraRate	NumFrames	NumMarkers	Units	OrigDataRate	OrigDataStartFrame	OrigNumFrames
250.000000	250.000000	4	54	mm	250.000000	162	324
Frame#	Time	HEAD_ANT			R_HEAD			L_HEAD			C7			R_BACK			L_BACK			STERNUM			R_ACROMION			R_HUM_PROX			R_HUM_ANT			R_HUM_POST			R_ELBOW_LAT			R_ELBOW_MED			R_FOREARM			R_WIRST_LAT			R_WRITS_MED			R_HAND			L_ACROMION			L_HUM_PROX			L_HUM_ANT			L_HUM_POST			L_ELBOW_LAT			L_ELBOW_MED			L_FOREARM			L_WRIST_LAT			L_WIRST_MED			L_HAND			R_ILIAC			SACRUM			L_ILIAC			R_GTROCH			R_THIGH__1			R_THIGH_2			R_THIGH_3			R_THIGH_4			R_SHANK_1			R_SHANK_2			R_SHANK_3			R_SHANK_4			R_HEEL			R_FOOT_LAT			R_FOOT_MED			L_GTROCH			L_THIGH_1			L_THIGH_2			L_THIGH_3			L_THIGH_4			L_SHANK_1			L_SHANK_2			L_SHANK_3			L_SHANK_4			L_HEEL			L_FOOT_LAT			L_FOOT_MED			
		X1	Y1	Z1	X2	Y2	Z2	X3	Y3	Z3	X4	Y4	Z4	X5	Y5	Z5	X6	Y6	Z6	X7	Y7	Z7	X8	Y8	Z8	X9	Y9	Z9	X10	Y10	Z10	X11	Y11	Z11	X12	Y12	Z12	X13	Y13	Z13	X14	Y14	Z14	X15	Y15	Z15	X16	Y16	Z16	X17	Y17	Z17	X18	Y18	Z18	X19	Y19	Z19	X20	Y20	Z20	X21	Y21	Z21	X22	Y22	Z22	X23	Y23	Z23	X24	Y24	Z24	X25	Y25	Z25	X26	Y26	Z26	X27	Y27	Z27	X28	Y28	Z28	X29	Y29	Z29	X30	Y30	Z30	X31	Y31	Z31	X32	Y32	Z32	X33	Y33	Z33	X34	Y34	Z34	X35	Y35	Z35	X36	Y36	Z36	X37	Y37	Z37	X38	Y38	Z38	X39	Y39	Z39	X40	Y40	Z40	X41	Y41	Z41	X42	Y42	Z42	X43	Y43	Z43	X44	Y44	Z44	X45	Y45	Z45	X46	Y46	Z46	X47	Y47	Z47	X48	Y48	Z48	X49	Y49	Z49	X50	Y50	Z50	X51	Y51	Z51	X52	Y52	Z52	X53	Y53	Z53	X54	Y54	Z54	

163	0.648	1097.643676757812	1713.79833984375	-327.7402648925777	1041.699584960938	1659.798095703125	-250.376800537109	1041.65283203125	1664.798461914062	-399.1117553710934	907.9298095703125	1491.92138671875	-322.9077453613278	835.3956909179688	1300.839965820312	-244.7863464355466	826.1737670898438	1299.44482421875	-382.1068115234372	1085.879272460938	1325.48681640625	-329.8730468749997	997.2022705078125	1443.821044921875	-153.7240142822262	980.8829345703125	1285.28369140625	-59.0867385864255	1045.352172851562	1201.386108398438	-71.77689361572239	929.3154296875	1199.481201171875	-33.6568641662595	983.9124755859375	1095.002807617188	-39.11467742919898	938.7308959960938	1088.057495117188	-109.7492294311521	1111.438598632812	932.4514770507812	-82.38793945312479	1147.5234375	880.8408813476562	-135.4957885742186	1101.944458007812	838.944091796875	-83.16318511962872	1192.893310546875	800.12109375	-88.3424758911131	978.6748046875	1438.892211914062	-493.9246215820309	938.089599609375	1272.3759765625	-581.763488769531	995.1023559570312	1188.298828125	-589.2553100585935	871.5433349609375	1198.629150390625	-600.4532470703123	924.787353515625	1089.478637695313	-612.238342285156	876.59716796875	1088.00732421875	-550.7221069335935	1013.718933105469	907.0375976562501	-610.775695800781	1043.782958984375	841.3203125000001	-561.475646972656	992.9486083984375	827.7755737304689	-624.8685302734373	1060.375	759.8060302734376	-612.2396850585936	969.3630981445312	1041.454711914062	-143.7428741455076	848.7518310546875	1014.251953125	-321.395812988281	972.031494140625	1037.078857421875	-492.4040222167966	903.1649780273438	906.7175903320312	-137.315719604492	867.6630859375	639.600341796875	-154.845016479492	925.4856567382812	640.1895751953125	-147.0480651855467	904.8663330078125	538.7033081054688	-177.3746795654296	846.4150390625	564.0993041992188	-172.539581298828	715.4593505859375	380.2302856445313	-168.5518646240234	747.4720458984375	330.9584045410157	-184.0567169189452	693.8748779296875	265.4458007812501	-202.5500946044921	646.6901245117188	308.0177307128907	-191.5526428222656	493.3244323730469	173.1154479980469	-271.8576354980468	588.9790649414062	29.9214191436768	-206.2909088134766	645.065185546875	28.56818962097175	-303.4334411621094	964.93603515625	926.7656250000001	-498.7540893554685	1144.340576171875	682.1976318359376	-472.6848754882811	1089.993286132812	679.9994506835939	-496.0501403808592	1110.04052734375	579.4154663085939	-461.8281249999999	1166.7490234375	605.5651245117189	-445.1935119628905	1205.011840820312	335.7947692871095	-448.3787536621093	1153.190551757812	304.083709716797	-452.1350097656249	1166.852172851562	218.7559814453126	-437.5048522949218	1227.62158203125	236.9595031738282	-427.6705627441406	1157.292602539062	36.92918395996102	-369.7740783691406	1335.184326171875	25.74109840393076	-432.4508056640625	1368.996948242188	40.78796768188484	-335.9227905273438	
164	0.652	1103.634399414062	1714.264526367188	-328.573577880859	1047.67578125	1660.250244140625	-251.2301635742184	1047.7666015625	1665.26904296875	-400.2229614257809	914.2994995117188	1492.384033203125	-323.841156005859	841.7107543945312	1301.043701171875	-245.3622283935544	832.50146484375	1299.653930664062	-382.9607849121091	1092.313598632812	1325.967895507812	-330.8036193847653	1003.348083496094	1444.438110351562	-154.4384155273434	986.7063598632812	1285.709594726562	-59.93561172485323	1050.995727539062	1201.794067382812	-71.95880126953098	934.6278076171875	1200.087646484375	-34.62540435790989	989.0203247070312	1095.391967773438	-39.61333847045874	943.6211547851562	1088.36962890625	-110.2665710449216	1116.056640625	931.907470703125	-82.77480316162088	1154.037841796875	880.9957885742188	-134.9059448242186	1105.960571289062	838.6168212890625	-82.96067047119122	1196.75341796875	799.2520141601562	-87.76138305664045	985.204833984375	1439.048095703125	-494.5285949707028	944.5758666992188	1272.48779296875	-582.3270874023435	1001.509094238281	1188.391357421875	-589.7628173828123	877.9293823242188	1198.619140625	-600.7623291015623	931.17626953125	1089.562255859375	-612.528625488281	883.005859375	1088.166748046875	-550.6574096679685	1019.916015625	906.8430786132814	-610.7783203124998	1049.870849609375	841.3629150390626	-562.341369628906	998.96923828125	827.6806030273439	-624.7191162109373	1066.354125976562	759.6600341796876	-612.1497802734374	977.4442138671875	1041.0849609375	-144.9022674560545	855.2651977539062	1014.595764160156	-321.3723144531248	978.072021484375	1037.770141601562	-493.0690917968748	910.3513793945312	906.169189453125	-137.3968505859373	876.2684936523438	638.6427001953125	-155.3746948242186	934.3351440429688	639.37841796875	-146.7304840087889	913.9205932617188	537.97900390625	-177.0980072021483	855.2582397460938	562.9625244140625	-172.5275573730468	723.1159057617188	381.2805786132813	-168.1076049804687	754.555908203125	331.5658264160157	-183.1968231201171	700.1556396484375	266.6685485839844	-201.2642517089843	653.4640502929688	309.7107543945313	-190.8254241943359	499.1890563964844	177.5317840576172	-270.9585571289062	590.1756591796875	30.90037155151372	-206.2582244873047	645.1736450195312	28.64359474182136	-303.5100708007812	971.41259765625	928.2878417968751	-499.1542663574216	1151.5380859375	683.6943969726564	-472.519073486328	1097.228393554688	681.5130004882814	-496.2738647460936	1117.672119140625	580.6711425781251	-462.362091064453	1174.174560546875	607.1786499023439	-445.0901489257811	1210.327270507812	335.6800842285157	-448.3645019531249	1157.883911132812	304.6641540527345	-453.0610046386718	1170.242797851562	219.181854248047	-438.2861938476562	1231.1865234375	236.5264739990235	-427.6184082031249	1157.81787109375	37.35501480102548	-370.0152282714844	1335.792236328125	24.91870689392099	-433.2837524414062	1369.25	38.26551818847663	-334.9174499511719	
165	0.656	1109.502685546875	1714.799194335938	-329.4765319824215	1053.6748046875	1660.713256835938	-252.1799774169918	1053.6591796875	1665.624267578125	-401.077239990234	920.61865234375	1492.88818359375	-324.5808410644528	848.0592041015625	1301.278198242188	-246.1730194091794	838.8380126953125	1300.006713867188	-383.9809875488278	1098.759399414062	1326.493286132812	-331.7032165527341	1009.580444335938	1444.951049804688	-155.0292358398434	992.4353637695312	1286.265014648438	-60.4120330810544	1056.513427734375	1202.223510742188	-72.18189239501926	939.942626953125	1200.666748046875	-35.60068511962864	994.4677734375	1095.876831054688	-40.52493286132788	949.4051513671875	1088.949584960938	-111.1195144653318	1120.625244140625	931.8038330078125	-82.35600280761697	1158.3837890625	880.408203125	-134.4906921386717	1110.012817382812	838.4999389648438	-82.64492797851544	1200.519653320312	798.3870849609375	-87.22100830078108	991.5988159179688	1439.273803710938	-495.3172607421872	950.9791870117188	1272.769653320313	-582.9024658203123	1008.052856445312	1188.539306640625	-590.1113281249998	884.4533081054688	1198.649658203125	-601.0173339843748	937.6158447265625	1089.76416015625	-612.6955566406248	889.4364624023438	1088.35009765625	-551.0023803710935	1026.1376953125	906.8685913085939	-610.838439941406	1055.978393554688	841.2076416015626	-562.3732299804685	1005.030944824219	827.6632080078126	-624.8782958984373	1072.384887695312	759.7672729492189	-612.1037597656249	984.9351806640625	1041.108520507812	-145.5193786621091	861.8241577148438	1014.919860839844	-321.3283691406248	983.6571655273438	1038.51806640625	-493.6324768066404	917.5160522460938	905.3997802734375	-137.5754547119139	884.9177856445312	637.8739624023438	-155.6939697265624	942.8909301757812	638.97265625	-146.8809204101561	923.1799926757812	537.3926391601562	-176.7031707763671	864.2877807617188	561.8576049804688	-172.2668151855468	730.78515625	382.2464294433594	-167.6628112792968	761.7201538085938	332.0464477539063	-182.2222900390624	706.650146484375	267.9559020996094	-200.2752685546874	660.416748046875	311.5475158691407	-189.8421936035156	505.3995666503906	181.8346099853516	-270.0655517578124	591.39306640625	31.83097267150884	-206.2678527832031	645.2939453125	28.725721359253	-303.5889892578125	977.6748046875	929.7111816406251	-499.4711608886716	1158.676513671875	685.0374755859376	-472.4190673828123	1104.522216796875	682.9380493164064	-496.5219421386717	1125.190673828125	581.7860107421876	-462.9909362792968	1181.46240234375	608.0900268554689	-445.0875549316405	1214.959228515625	335.339080810547	-448.3481750488281	1162.467895507812	304.7674560546876	-454.0616455078124	1173.645874023438	219.3179321289063	-439.1228637695312	1234.573120117188	236.0132751464845	-427.3639831542968	1158.354248046875	37.75041198730477	-370.1265869140625	1336.230346679688	24.22941207885752	-433.9408874511719	1369.662841796875	36.0761909484864	-334.1950073242188	
166	0.66	1115.510620117188	1715.253295898438	-330.4714050292965	1059.78076171875	1661.2880859375	-253.1340637207028	1059.912231445312	1666.106567382812	-402.0519714355465	926.960693359375	1493.5107421875	-325.4520874023434	854.4439697265625	1301.348510742188	-246.47395324707	845.1890258789062	1300.344482421875	-384.8966979980466	1105.184204101562	1327.137817382812	-332.6098327636716	1015.820739746094	1445.518432617188	-155.8690032958981	998.0684204101562	1286.94287109375	-61.20167922973604	1062.082885742188	1202.7275390625	-72.42590332031223	945.2866821289062	1201.357055664062	-36.64538192748996	999.9496459960938	1096.464111328125	-41.07878494262671	955.240234375	1089.7060546875	-112.1908569335935	1125.263671875	931.685546875	-82.21413421630838	1161.07763671875	879.1799926757812	-134.5939941406248	1114.031860351562	838.46875	-82.40122985839825	1204.258422851562	797.7471923828125	-86.6120529174803	997.9495239257812	1439.549194335938	-496.0181884765622	957.4988403320312	1272.9853515625	-583.2960205078123	1014.545166015625	1188.668212890625	-590.4644775390623	890.7671508789062	1199.008911132813	-601.6762695312498	944.1532592773438	1090.097900390625	-612.815002441406	896.0297241210938	1088.614868164063	-551.1705322265623	1032.468139648438	907.1267089843751	-610.803039550781	1061.890014648438	841.0238647460939	-561.5258178710935	1011.269409179688	827.6714477539064	-624.8607177734373	1078.559692382812	759.7198486328126	-612.0332031249999	992.5003051757812	1041.070556640625	-146.2443695068357	868.4103393554688	1015.279418945313	-321.2837219238279	990.1361694335938	1039.421020507812	-494.429992675781	924.7492065429688	904.904052734375	-137.736618041992	893.7654418945312	637.1431884765625	-156.1083679199217	951.635009765625	638.9312744140625	-146.3187561035155	932.5288696289062	536.774169921875	-176.2039642333983	873.6138305664062	560.8734130859375	-172.0365753173827	738.7888793945312	383.3061523437501	-167.0452728271484	769.0706787109375	332.8749084472657	-180.5417327880859	713.371337890625	268.9402465820313	-199.2719573974609	667.5341796875	313.7570800781251	-187.9368743896484	512.1050415039062	186.1489410400391	-269.2923583984374	592.7420043945312	32.94058609008793	-206.2306823730469	645.501708984375	28.88952064514167	-303.7324523925781	983.8746948242188	931.1520996093751	-499.7823486328123	1165.727783203125	686.2800903320314	-472.1781921386717	1111.738159179688	684.1358032226564	-497.0044555664061	1132.53564453125	582.8770141601564	-463.802764892578	1188.397827148438	609.6008300781251	-445.2360534667968	1219.477905273438	334.9730224609376	-448.6033935546874	1167.153198242188	304.937713623047	-454.9337768554687	1176.920654296875	219.3370056152345	-439.3945922851562	1237.88232421875	235.4148101806641	-426.7334899902343	1158.914428710938	38.02527618408212	-370.0945739746094	1336.592529296875	23.75407028198252	-434.3800659179688	1370.233032226562	34.69880676269538	-333.5380554199219	
